<?xml version="1.0" encoding="iso-8859-1"?>
<svg version="1.1" id="Layer_1" xmlns="http://www.w3.org/2000/svg" xmlns:xlink="http://www.w3.org/1999/xlink" x="0px" y="0px" width="44px" height="44px" viewBox="0 0 44 44" enable-background="new 0 0 44 44" xml:space="preserve">
	<path d="M22,0C6.579,0,0,6.58,0,22s6.579,22,22,22s22-6.58,22-22S37.421,0,22,0z M32.39,19.725l-5.815,14.538
	c-0.335,0.838-1.522,0.838-1.857,0l-3.447-8.617h-8.732c-0.707,0-1.191-0.714-0.928-1.371l5.815-14.538
	c0.335-0.838,1.522-0.838,1.857,0l3.447,8.617h8.732C32.169,18.354,32.653,19.068,32.39,19.725z" />
</svg>
