<?xml version="1.0" encoding="iso-8859-1"?>
<svg version="1.1" id="Layer_1" xmlns="http://www.w3.org/2000/svg" xmlns:xlink="http://www.w3.org/1999/xlink" x="0px" y="0px" width="342.293px" height="96.093px" viewBox="0 0 342.293 96.093" enable-background="new 0 0 342.293 96.093" xml:space="preserve">
	<path fill="#FFC728" d="M48.093,70c-15.421,0-22-6.58-22-22s6.579-22,22-22s22,6.58,22,22S63.514,70,48.093,70z" />
	<circle fill="#FFC728" cx="263.2" cy="18" r="6" />
	<path fill="currentColor" d="M57.554,44.354h-8.732l-3.447-8.617c-0.335-0.838-1.522-0.838-1.857,0l-5.815,14.538
	c-0.263,0.657,0.221,1.371,0.928,1.371h8.732l3.447,8.617c0.335,0.838,1.522,0.838,1.857,0l5.815-14.538
	C58.745,45.068,58.261,44.354,57.554,44.354z" />
	<g>
		<path fill="currentColor" d="M266.501,27.597h-6c-0.552,0-1,0.448-1,1v38.848c0,0.552,0.448,1,1,1h6c0.552,0,1-0.448,1-1V28.597
		C267.501,28.045,267.053,27.597,266.501,27.597z" />
		<path fill="currentColor" d="M150.25,26.192V26h-5.342v0.036C130.429,26.408,124.2,33.026,124.2,48c0,15.42,6.579,22,22,22
		s22-6.58,22-22C168.2,34.014,162.763,27.32,150.25,26.192z M146.2,62c-10.99,0-14-3.009-14-14s3.01-14,14-14s14,3.009,14,14
		S157.191,62,146.2,62z" />
		<path fill="currentColor" d="M315.102,38.508c-0.85-3.006-2.191-5.396-4.103-7.308c-1.912-1.911-4.302-3.252-7.307-4.101
		c-2.618-0.74-5.724-1.1-9.492-1.1s-6.874,0.36-9.491,1.099c-3.006,0.849-5.396,2.19-7.308,4.102
		c-1.911,1.911-3.253,4.301-4.103,7.309c-0.739,2.62-1.099,5.725-1.099,9.491s0.359,6.871,1.099,9.492
		c0.85,3.006,2.191,5.396,4.103,7.308c1.912,1.911,4.302,3.252,7.307,4.101c2.618,0.74,5.724,1.1,9.492,1.1s6.874-0.36,9.491-1.099
		c2.596-0.733,4.732-1.833,6.497-3.35c0.45-0.387,0.495-1.066,0.075-1.486l-4.268-4.269c-0.349-0.349-0.901-0.396-1.293-0.095
		c-0.836,0.64-1.887,1.135-3.187,1.502c-1.9,0.537-4.293,0.798-7.316,0.798s-5.416-0.261-7.317-0.798
		c-1.655-0.467-2.906-1.141-3.825-2.06c-0.918-0.918-1.592-2.169-2.06-3.824c-0.274-0.972-0.477-2.072-0.608-3.318H315.2
		c0.552,0,1-0.448,1-1v-3C316.2,44.234,315.841,41.129,315.102,38.508z M280.39,44c0.132-1.246,0.334-2.346,0.608-3.317
		c0.468-1.656,1.142-2.907,2.06-3.825c0.919-0.919,2.17-1.593,3.826-2.061c1.9-0.537,4.293-0.798,7.316-0.798
		s5.416,0.261,7.317,0.798c1.655,0.467,2.906,1.141,3.825,2.06c0.918,0.918,1.592,2.169,2.06,3.824
		c0.274,0.972,0.477,2.072,0.608,3.318H280.39z" />
		<path fill="currentColor" d="M118.2,12h-6c-0.552,0-1,0.448-1,1v16.069C107.755,26.988,103.14,26,97.2,26c-15.421,0-22,6.58-22,22
		s6.579,22,22,22s22-6.58,22-22V13C119.2,12.448,118.753,12,118.2,12z M97.2,62c-10.99,0-14-3.009-14-14s3.01-14,14-14
		s14,3.009,14,14S108.191,62,97.2,62z" />
		<path fill="currentColor" d="M192.096,45.3l15.361-16.003c0.61-0.636,0.16-1.692-0.721-1.692h-8.317c-0.272,0-0.533,0.111-0.721,0.307
		L182.2,44.056V13c0-0.552-0.448-1-1-1h-6c-0.552,0-1,0.448-1,1v54.445c0,0.552,0.448,1,1,1h6c0.552,0,1-0.448,1-1V55.609
		l4.317-4.497l13.961,16.968c0.19,0.231,0.473,0.365,0.772,0.365h7.77c0.845,0,1.309-0.983,0.772-1.635L192.096,45.3z" />
		<path fill="currentColor" d="M234.255,45.3l15.361-16.003c0.61-0.636,0.16-1.692-0.721-1.692h-8.317c-0.272,0-0.533,0.111-0.721,0.307
		L224.36,44.056V13c0-0.552-0.448-1-1-1h-6c-0.552,0-1,0.448-1,1v54.445c0,0.552,0.448,1,1,1h6c0.552,0,1-0.448,1-1V55.609
		l4.317-4.497l13.961,16.968c0.19,0.231,0.473,0.365,0.772,0.365h7.77c0.845,0,1.309-0.983,0.772-1.635L234.255,45.3z" />
	</g>
</svg>
